<svg width="24" height="24" viewBox="0 0 24 24" fill="none" xmlns="http://www.w3.org/2000/svg">
<path d="M20.7 3.3C19.9945 2.59836 19.04 2.2045 18.045 2.2045C17.05 2.2045 16.0955 2.59836 15.39 3.3L5.04 13.665L2.39999 19.095C2.2643 19.381 2.20261 19.6965 2.22058 20.0125C2.23854 20.3285 2.33559 20.6349 2.50281 20.9037C2.67004 21.1724 2.90208 21.3949 3.17765 21.5506C3.45323 21.7064 3.7635 21.7904 4.08 21.795C4.3664 21.7949 4.64886 21.7282 4.905 21.6L10.335 18.96L19.335 9.96L20.58 8.73L20.67 8.64C21.3811 7.93533 21.7837 6.97733 21.7893 5.97621C21.7949 4.97509 21.4032 4.01262 20.7 3.3ZM19.365 4.635C19.5396 4.80918 19.6781 5.01608 19.7727 5.24388C19.8672 5.47167 19.9158 5.71588 19.9158 5.9625C19.9158 6.20913 19.8672 6.45334 19.7727 6.68113C19.6781 6.90892 19.5396 7.11583 19.365 7.29L16.71 4.635C17.051 4.28855 17.514 4.08933 18 4.08C18.2536 4.07286 18.5058 4.1185 18.7408 4.21405C18.9758 4.30959 19.1884 4.45294 19.365 4.635ZM4.095 19.905L6.435 15L9 17.565L4.095 19.905ZM10.335 16.305L7.695 13.665L15.39 6L18 8.61L10.335 16.305Z" fill="#4A4A4A"/>
</svg>
