<svg width="24" height="25" viewBox="0 0 24 25" fill="none" xmlns="http://www.w3.org/2000/svg">
<g clip-path="url(#clip0_6_8)">
<path fill-rule="evenodd" clip-rule="evenodd" d="M23.7712 12.8613C22.5042 6.55416 15.8056 0.617446 11.2125 0.0703735V0.0721753C10.8394 0.320937 10.5294 0.631635 10.2783 0.995374C12.9555 1.2563 15.2916 3.13772 17.976 6.15877C20.0616 8.50618 21.455 12.2571 21.7981 16.2091C21.9341 17.7722 21.9064 19.367 21.6949 20.9199C23.8459 18.4422 24.3257 15.6154 23.7712 12.8613Z" fill="#EB8B2D"/>
<path fill-rule="evenodd" clip-rule="evenodd" d="M21.7981 16.2091C21.9341 17.7722 21.9064 19.367 21.6949 20.9199C19.2497 23.8167 10.811 25.2505 5.45475 24.841V24.8388C4.64582 23.6285 4.23407 22.2924 4.12982 20.8926C10.9346 22.2295 18.2224 20.0664 21.7981 16.2091Z" fill="#E15E36"/>
<path fill-rule="evenodd" clip-rule="evenodd" d="M16.6899 7.1438C18.2605 9.77173 17.9442 14.5073 16.1964 17.2404L15.9729 17.1822C14.7997 16.6587 13.6104 15.4455 12.5722 13.8883C16.0783 9.41824 14.136 6.0224 11.6829 5.32679C10.9498 5.11621 10.1728 5.14898 9.48053 5.46576C11.8357 4.28569 14.9532 4.43918 16.6899 7.1438Z" fill="#0067A5"/>
<path fill-rule="evenodd" clip-rule="evenodd" d="M9.48054 5.46575C10.1728 5.14897 10.9498 5.1162 11.6829 5.32678C11.066 5.9332 10.4209 6.6314 9.77989 7.40178C9.62839 6.74773 9.52007 6.10167 9.45879 5.47554V5.47374C9.46671 5.47081 9.47196 5.46687 9.48054 5.46575Z" fill="#929D25"/>
<path fill-rule="evenodd" clip-rule="evenodd" d="M15.9729 17.1822C14.7997 16.6587 13.6104 15.4455 12.5722 13.8883C11.3291 12.0279 10.3016 9.66914 9.77989 7.4018C9.62839 6.74774 9.52007 6.10168 9.45878 5.47556V5.47376C9.28639 3.70439 9.50903 2.10596 10.2783 0.995378C10.5294 0.63164 10.8394 0.320941 11.2125 0.0721801V0.0703783C9.8236 -0.0933604 8.62532 0.23254 7.83107 1.19369H7.82828C7.22507 1.92083 6.85125 3.00923 6.79789 4.5215C6.70039 5.29549 6.627 6.39887 6.61382 7.66081C6.60278 8.8947 6.65325 10.2759 6.79971 11.6583C7.35203 16.8926 9.29571 22.0909 14.6334 18.8485C15.238 18.4797 15.7627 17.9206 16.1964 17.2404L15.9729 17.1822Z" fill="#58AFD6"/>
<path fill-rule="evenodd" clip-rule="evenodd" d="M4.12982 20.8926C3.90557 17.8919 5.09614 14.5993 6.79971 11.6584C6.65325 10.2759 6.60278 8.89472 6.61382 7.66083C3.81632 10.3902 0.453535 15.6639 0.0513205 19.6406C-0.159108 21.7136 0.435856 23.4321 2.33871 24.2535C3.13618 24.5522 4.21221 24.7457 5.45475 24.841V24.8389C4.64582 23.6285 4.23407 22.2925 4.12982 20.8926Z" fill="#929D25"/>
</g>
<defs>
<clipPath id="clip0_6_8">
<rect width="24" height="25" fill="white"/>
</clipPath>
</defs>
</svg>
