<svg width="120" height="120" viewBox="0 0 120 120" fill="none" xmlns="http://www.w3.org/2000/svg">
<path d="M26.6911 97.2903C16.4478 88.1343 10 74.8201 10 60C10 32.3858 32.3858 10 60 10C87.6142 10 110 32.3858 110 60C110 74.8432 103.532 88.1758 93.2609 97.3331C87.4786 91.4187 70.878 87.8511 68.75 87.5C66.8993 87.1946 67.5 82.5 67.5 82.5C67.5 82.5 72.8218 76.5023 74.0071 68.9948C77.1954 68.9948 79.439 60.9332 76.25 58.125C76.25 55 80 35 60 35C40 35 43.75 55 43.75 58.125C40.5613 60.9332 43.0615 68.75 46.25 68.75C47.4351 76.2575 52.5 82.5 52.5 82.5C52.5 82.5 53.1007 87.1946 51.25 87.5C46.9259 88.2135 32.0723 91.4872 26.6911 97.2903Z" fill="#FFDA6A"/>
<path d="M38.5494 90.7631C28.8467 83.9849 22.5 72.7337 22.5 60C22.5 39.2893 39.2893 22.5 60 22.5C80.7107 22.5 97.5 39.2893 97.5 60C97.5 72.81 91.0769 84.1198 81.2757 90.8845C75.5261 88.8713 69.9264 87.6941 68.75 87.5C66.8993 87.1946 67.5 82.5 67.5 82.5C67.5 82.5 72.8218 76.5023 74.0071 68.9948C77.1954 68.9948 79.439 60.9332 76.25 58.125C76.25 55 80 35 60 35C40 35 43.75 55 43.75 58.125C40.5613 60.9332 43.0615 68.75 46.25 68.75C47.4351 76.2575 52.5 82.5 52.5 82.5C52.5 82.5 53.1007 87.1946 51.25 87.5C48.9685 87.8765 43.7556 88.9657 38.5494 90.7631Z" fill="#FFC102"/>
</svg>
